# xmcd
#
# Track frame offsets:
# 150
# 14797
# 28965
# 45768
# 61614
# 77522
# 92632
# 107313
# 121457
# 135184
# 149677
# 162804
# 175889
# 192358
# 208010
# 226045
# 242716
#
# Disc length: 3493 seconds
#
#
# Revision: 0
# Processed by: cddbd v1.5.2PL0 Copyright (c) Steve Scherf et al.
# Submitted via: FreeRIP 2.951 
#
DISCID=d50da311
DTITLE=Banda Calypso Vol. 10 - Vol. 10
DYEAR=2007
DGENRE=Forró
TTITLE0=Acelorou
TTITLE1=Aparece meu Amor
TTITLE2=Mais uma chance
TTITLE3=Gamei
TTITLE4=Estou a fim
TTITLE5=Se não quer tem quem quer
TTITLE6=Não, Não vá
TTITLE7=Nessa balada
TTITLE8=Chiclete co Calypso
TTITLE9=Louca Sedução
TTITLE10=Amor Bandoleiro
TTITLE11=Deixa acontecer
TTITLE12=Objeto de desejo
TTITLE13=Parecemos tão iguais
TTITLE14=Pra não morrer de amor
TTITLE15=Eclipse total
TTITLE16=Auto Estima
EXTD=NELDVD2007
EXTT0=
EXTT1=
EXTT2=
EXTT3=
EXTT4=
EXTT5=
EXTT6=
EXTT7=
EXTT8=
EXTT9=
EXTT10=
EXTT11=
EXTT12=
EXTT13=
EXTT14=
EXTT15=
EXTT16=
PLAYORDER=
